<svg xmlns="http://www.w3.org/2000/svg" viewBox="0 0 19 19">
  <path fill="currentColor" fill-rule="evenodd" d="M1.5 2.646C1.5 2.013 2.026 1.5 2.675 1.5h13.65C16.974 1.5 17.5 2.013 17.5 2.646v13.708c0 .633-.526 1.146-1.175 1.146H2.675C2.026 17.5 1.5 16.987 1.5 16.354zm4.943 12.248V7.669H4.042v7.225zm-1.2-8.212c.837 0 1.358-.554 1.358-1.248-.015-.709-.52-1.248-1.342-1.248S3.9 4.726 3.9 5.434c0 .694.521 1.248 1.327 1.248zm4.908 8.212V10.859c0-.216.016-.432.08-.586.173-.431.568-.878 1.232-.878.869 0 1.216.662 1.216 1.634v3.865h2.401V10.75c0-2.22-1.184-3.252-2.764-3.252-1.274 0-1.845.7-2.165 1.193v.025h-.016l.016-.025V7.669h-2.4c.03.678 0 7.225 0 7.225z"/>
</svg>
